<svg width="296" height="36" viewBox="0 0 296 36" fill="none" xmlns="http://www.w3.org/2000/svg">
<circle cx="278" cy="18" r="18" fill="#33643F"/>
<path d="M274.507 16.0539C274.507 15.3533 274.735 14.7565 275.191 14.2636C275.647 13.7706 276.201 13.5241 276.853 13.5241C277.407 13.5241 277.822 13.6668 278.099 13.9522C278.376 14.2376 278.514 14.5879 278.514 15.003C278.514 15.2625 278.466 15.5868 278.368 15.976C278.238 16.3393 278.075 16.7804 277.879 17.2993C277.684 17.7923 277.537 18.1944 277.439 18.5058C277.276 19.0247 277.398 19.4723 277.806 19.8485C278.213 20.2248 278.743 20.4129 279.394 20.4129C280.535 20.4129 281.471 19.9004 282.205 18.8755C282.938 17.8507 283.304 16.6117 283.304 15.1587C283.304 14.043 282.856 13.1349 281.96 12.4343C281.064 11.7338 279.802 11.3835 278.172 11.3835C276.348 11.3835 274.873 11.8441 273.749 12.7652C272.625 13.6863 272.063 14.7955 272.063 16.0928C272.063 16.8452 272.34 17.4939 272.894 18.0388C273.089 18.1944 273.154 18.3761 273.089 18.5836C273.024 18.7134 272.943 18.9728 272.845 19.362C272.78 19.4918 272.69 19.5761 272.576 19.615C272.462 19.6539 272.34 19.6604 272.21 19.6345C271.362 19.3491 270.727 18.8691 270.303 18.1944C269.88 17.5198 269.668 16.7414 269.668 15.8593C269.668 15.2884 269.782 14.7176 270.01 14.1468C270.238 13.576 270.597 13.0246 271.085 12.4927C271.574 11.9608 272.161 11.4873 272.845 11.0721C273.529 10.657 274.36 10.3262 275.338 10.0797C276.315 9.83321 277.374 9.70996 278.514 9.70996C279.655 9.70996 280.722 9.86564 281.716 10.177C282.71 10.4884 283.541 10.9035 284.209 11.4224C284.877 11.9414 285.398 12.5446 285.773 13.2322C286.147 13.9198 286.335 14.6268 286.335 15.3533C286.335 17.2993 285.716 18.908 284.477 20.1793C283.239 21.4507 281.643 22.0864 279.688 22.0864C279.036 22.0864 278.425 21.9697 277.855 21.7361C277.284 21.5026 276.885 21.2172 276.657 20.8799C276.168 22.3848 275.875 23.2799 275.777 23.5654C275.517 24.3438 274.93 25.2519 274.018 26.2897H273.187C272.992 24.9665 273.024 23.8767 273.285 23.0205L274.898 17.6496C274.637 17.2085 274.507 16.6766 274.507 16.0539Z" fill="#FFF8E6"/>
<circle cx="18" cy="18" r="18" fill="#33643F"/>
<path d="M19.1635 25.4976V18.6676H21.4677L21.8102 15.9935H19.1635V14.2901C19.1635 13.5185 19.3785 12.9901 20.486 12.9901H21.8894V10.606C21.2066 10.5328 20.5202 10.4975 19.8335 10.5001C17.7969 10.5001 16.3985 11.7435 16.3985 14.026V15.9885H14.1094V18.6626H16.4035V25.4976H19.1635Z" fill="#FFF8E6"/>
<circle cx="70" cy="18" r="18" fill="#33643F"/>
<path d="M77.4544 14.921C77.446 14.2899 77.3279 13.665 77.1053 13.0744C76.9122 12.5762 76.6174 12.1237 76.2396 11.7459C75.8618 11.3681 75.4093 11.0733 74.9111 10.8802C74.328 10.6613 73.7121 10.543 73.0894 10.5302C72.2878 10.4944 72.0336 10.4844 69.9986 10.4844C67.9636 10.4844 67.7028 10.4844 66.9069 10.5302C66.2846 10.5431 65.6689 10.6614 65.0861 10.8802C64.5878 11.0731 64.1353 11.3679 63.7575 11.7457C63.3796 12.1236 63.0848 12.5761 62.8919 13.0744C62.6726 13.657 62.5545 14.2728 62.5428 14.8952C62.5069 15.6977 62.4961 15.9519 62.4961 17.9869C62.4961 20.0219 62.4961 20.2819 62.5428 21.0785C62.5553 21.7019 62.6728 22.3169 62.8919 22.901C63.0852 23.3992 63.3802 23.8515 63.7581 24.2292C64.1361 24.6068 64.5886 24.9015 65.0869 25.0944C65.6681 25.322 66.2839 25.4489 66.9078 25.4694C67.7103 25.5052 67.9644 25.516 69.9994 25.516C72.0344 25.516 72.2953 25.516 73.0911 25.4694C73.7137 25.4571 74.3297 25.339 74.9128 25.1202C75.4108 24.9269 75.8632 24.632 76.241 24.2542C76.6187 23.8765 76.9137 23.4241 77.1069 22.926C77.3261 22.3427 77.4436 21.7277 77.4561 21.1035C77.4919 20.3019 77.5028 20.0477 77.5028 18.0119C77.5011 15.9769 77.5011 15.7185 77.4544 14.921ZM69.9936 21.8352C67.8653 21.8352 66.1411 20.111 66.1411 17.9827C66.1411 15.8544 67.8653 14.1302 69.9936 14.1302C71.0153 14.1302 71.9952 14.5361 72.7177 15.2586C73.4402 15.9811 73.8461 16.961 73.8461 17.9827C73.8461 19.0045 73.4402 19.9844 72.7177 20.7068C71.9952 21.4293 71.0153 21.8352 69.9936 21.8352ZM73.9994 14.886C73.8814 14.8862 73.7646 14.863 73.6555 14.8179C73.5465 14.7728 73.4474 14.7066 73.364 14.6232C73.2805 14.5397 73.2144 14.4407 73.1693 14.3316C73.1241 14.2226 73.101 14.1057 73.1011 13.9877C73.1011 13.8698 73.1243 13.753 73.1694 13.6441C73.2146 13.5352 73.2807 13.4362 73.3641 13.3528C73.4475 13.2694 73.5465 13.2033 73.6554 13.1581C73.7643 13.113 73.8811 13.0898 73.999 13.0898C74.1169 13.0898 74.2337 13.113 74.3426 13.1581C74.4516 13.2033 74.5506 13.2694 74.6339 13.3528C74.7173 13.4362 74.7835 13.5352 74.8286 13.6441C74.8737 13.753 74.8969 13.8698 74.8969 13.9877C74.8969 14.4844 74.4953 14.886 73.9994 14.886Z" fill="#FFF8E6"/>
<path d="M69.9947 20.4855C71.3768 20.4855 72.4972 19.3651 72.4972 17.983C72.4972 16.6009 71.3768 15.4805 69.9947 15.4805C68.6126 15.4805 67.4922 16.6009 67.4922 17.983C67.4922 19.3651 68.6126 20.4855 69.9947 20.4855Z" fill="#FFF8E6"/>
<circle cx="122" cy="18" r="18" fill="#33643F"/>
<path d="M122.051 11.999H122.14C122.962 12.002 127.127 12.032 128.25 12.334C128.589 12.4262 128.899 12.6058 129.147 12.855C129.395 13.1042 129.574 13.4142 129.665 13.754C129.766 14.134 129.837 14.637 129.885 15.156L129.895 15.26L129.917 15.52L129.925 15.624C129.99 16.538 129.998 17.394 129.999 17.581V17.656C129.998 17.85 129.989 18.764 129.917 19.716L129.909 19.821L129.9 19.925C129.85 20.497 129.776 21.065 129.665 21.483C129.574 21.823 129.396 22.1331 129.147 22.3823C128.899 22.6316 128.59 22.8111 128.25 22.903C127.09 23.215 122.681 23.237 122.07 23.238H121.928C121.619 23.238 120.341 23.232 119.001 23.186L118.831 23.18L118.744 23.176L118.573 23.169L118.402 23.162C117.292 23.113 116.235 23.034 115.748 22.902C115.408 22.8102 115.099 22.6308 114.851 22.3818C114.602 22.1327 114.424 21.8228 114.333 21.483C114.222 21.066 114.148 20.497 114.098 19.925L114.09 19.82L114.082 19.716C114.033 19.0384 114.005 18.3594 114 17.68V17.557C114.002 17.342 114.01 16.599 114.064 15.779L114.071 15.676L114.074 15.624L114.082 15.52L114.104 15.26L114.114 15.156C114.162 14.637 114.233 14.133 114.334 13.754C114.425 13.4141 114.603 13.1039 114.852 12.8547C115.1 12.6055 115.409 12.4259 115.749 12.334C116.236 12.204 117.293 12.124 118.403 12.074L118.573 12.067L118.745 12.061L118.831 12.058L119.002 12.051C119.954 12.0204 120.906 12.0034 121.858 12H122.051V11.999ZM120.4 15.209V20.027L124.557 17.619L120.4 15.209Z" fill="#FFF8E6"/>
<circle cx="174" cy="18" r="18" fill="#33643F"/>
<path d="M171.026 24.9997C177.064 24.9997 180.367 19.9967 180.367 15.6657C180.367 15.5257 180.367 15.3837 180.361 15.2437C181.004 14.7782 181.559 14.2019 182 13.5417C181.399 13.8066 180.763 13.9811 180.111 14.0597C180.798 13.6494 181.312 13.0037 181.558 12.2427C180.913 12.6248 180.207 12.8931 179.471 13.0357C178.976 12.5087 178.321 12.1596 177.608 12.0425C176.895 11.9253 176.163 12.0466 175.525 12.3877C174.888 12.7287 174.381 13.2703 174.082 13.9288C173.784 14.5872 173.711 15.3256 173.875 16.0297C172.57 15.9643 171.293 15.6252 170.127 15.0345C168.961 14.4437 167.933 13.6146 167.108 12.6007C166.689 13.3238 166.562 14.1791 166.751 14.993C166.94 15.8068 167.431 16.5182 168.126 16.9827C167.606 16.965 167.097 16.8253 166.64 16.5747V16.6197C166.641 17.3772 166.903 18.1111 167.383 18.6975C167.862 19.2838 168.53 19.6866 169.272 19.8377C168.99 19.9153 168.699 19.954 168.407 19.9527C168.201 19.9533 167.995 19.9343 167.793 19.8957C168.003 20.5478 168.411 21.1179 168.961 21.5262C169.511 21.9345 170.175 22.1606 170.86 22.1727C169.697 23.0865 168.259 23.5821 166.78 23.5797C166.519 23.5808 166.259 23.5658 166 23.5347C167.502 24.492 169.245 25.0003 171.026 24.9997Z" fill="#FFF8E6"/>
<circle cx="226" cy="18" r="18" fill="#33643F"/>
<g clip-path="url(#clip0_60_37373)">
<path d="M221.632 26V15.2048H218.202V26H221.632ZM219.918 13.73C221.114 13.73 221.858 12.9011 221.858 11.8652C221.836 10.8059 221.114 10 219.94 10C218.767 10 218 10.806 218 11.8652C218 12.9012 218.744 13.73 219.895 13.73H219.918H219.918ZM223.531 26H226.96V19.9715C226.96 19.6488 226.983 19.3265 227.073 19.0959C227.321 18.4512 227.885 17.7836 228.833 17.7836C230.074 17.7836 230.57 18.7736 230.57 20.2248V25.9999H234V19.8101C234 16.4942 232.308 14.9514 230.051 14.9514C228.201 14.9514 227.389 16.0333 226.937 16.7703H226.96V15.2046H223.531C223.576 16.2176 223.531 25.9998 223.531 25.9998L223.531 26Z" fill="#FFF8E6"/>
</g>
<defs>
<clipPath id="clip0_60_37373">
<rect width="16" height="16" fill="white" transform="translate(218 10)"/>
</clipPath>
</defs>
</svg>
