<svg width="646" height="329" viewBox="0 0 646 329" fill="none" xmlns="http://www.w3.org/2000/svg">
<path fill-rule="evenodd" clip-rule="evenodd" d="M280.442 42.8228C335.155 46.0014 380.462 19.0646 435.604 19.9403C496.72 20.9108 565.188 27.4989 605.461 47.984C645.557 68.3798 646.448 99.2484 644.78 126.34C643.276 150.768 606.294 171.417 596.381 195.453C585.953 220.739 617.208 250.12 584.938 271.442C553.067 292.5 485.017 294.003 432.393 303.803C382.103 313.167 333.664 333.396 280.442 328.144C224.909 322.663 206.733 289.62 157.812 276.702C114.352 265.227 44.8976 275.729 14.2343 257.851C-16.6387 239.851 12.6601 213.41 10.4503 190.785C8.61198 171.962 1.1006 153.925 2.24478 135.092C3.58426 113.043 1.88996 91.0103 17.781 70.1187C37.0963 44.7255 45.815 6.79776 104.467 0.70257C170.148 -6.12299 213.563 38.9373 280.442 42.8228Z" fill="#FFE6A5" fill-opacity="0.5"/>
</svg>
