<svg width="47" height="35" viewBox="0 0 47 35" fill="none" xmlns="http://www.w3.org/2000/svg">
<path d="M16.4234 29.7198L13.2953 31.2839L19.5515 33.63H25.0256L28.1537 32.0659L30.4998 30.5018L34.4099 25.8097L35.192 24.2456L35.974 21.8995L36.756 19.5534L34.4099 20.3354H31.2818H27.3717L23.4616 19.5534L19.5515 21.1175L17.2054 22.6815L16.4234 25.0276L15.6414 28.1558L16.4234 29.7198Z" fill="#3A643B"/>
<path d="M25.0246 11.7334L21.8965 13.2975L28.1527 15.6436H33.6269L36.755 14.0795L39.101 12.5154L43.0111 7.82325L43.7932 6.25919L44.5752 3.91309L45.3572 1.567L43.0111 2.34903H39.883H35.9729L32.0628 1.567L28.1527 3.13106L25.8066 4.69512L25.0246 7.04122L24.2426 10.1693L25.0246 11.7334Z" fill="#3A643B"/>
<path d="M0.783007 17.9866C2.65986 8.60225 9.38527 6.25616 12.5134 5.47413L11.7313 8.60225C11.992 8.60225 12.9826 9.38428 14.8594 12.5124C16.7363 15.6405 14.5988 19.0293 13.2954 20.3327L10.1673 23.4608L7.82122 25.8069L5.47515 28.153L3.9111 31.2811C1.40863 26.2761 0.783007 20.3327 0.783007 17.9866Z" fill="#3A643B"/>
<path d="M14.9362 29.0301C12.9331 30.1543 11.2325 31.7474 9.98007 33.6729C9.9194 33.7713 9.87893 33.8808 9.86102 33.995C9.84311 34.1092 9.84812 34.2258 9.87576 34.338C9.9034 34.4503 9.95312 34.5559 10.022 34.6487C10.0909 34.7415 10.1776 34.8197 10.277 34.8786C10.3764 34.9376 10.4866 34.9761 10.6011 34.9921C10.7155 35.008 10.8321 35.001 10.9438 34.9714C11.0555 34.9418 11.1603 34.8903 11.2519 34.8198C11.3435 34.7493 11.4201 34.6613 11.4774 34.5609C11.9991 33.7184 12.6425 32.9576 13.3867 32.3033C16.242 34.0443 19.0218 34.9207 21.6972 34.9207C23.0811 34.9209 24.4548 34.6854 25.7596 34.2243C34.1049 31.3225 38.0861 20.174 38.2486 19.7155C38.3238 19.5183 38.3291 19.3013 38.2636 19.1006C38.1981 18.8999 38.0658 18.7278 37.8888 18.6129C37.7255 18.5106 37.5309 18.4702 37.3404 18.4989C37.1498 18.5277 36.9759 18.6237 36.85 18.7696C36.5714 18.9263 34.25 20.0173 25.3069 19.2164C21.9003 18.9089 19.254 19.6401 17.4491 21.3811C15.6442 23.1222 14.8492 25.6699 14.9362 29.0301ZM25.1444 20.9865C30.855 21.4972 34.0759 21.2709 35.875 20.9111C34.4415 24.0565 30.855 30.6145 25.1677 32.5935C21.97 33.7542 18.4995 33.2551 14.8492 31.1832C18.4589 28.6529 23.7342 26.9467 28.1042 26.4708C28.2185 26.4586 28.3293 26.424 28.4303 26.369C28.5312 26.314 28.6203 26.2396 28.6925 26.1502C28.7648 26.0607 28.8186 25.9579 28.8511 25.8476C28.8836 25.7373 28.8941 25.6217 28.8819 25.5074C28.8697 25.3931 28.8351 25.2823 28.7801 25.1814C28.725 25.0804 28.6507 24.9913 28.5612 24.9191C28.4718 24.8469 28.369 24.793 28.2587 24.7605C28.1484 24.728 28.0328 24.7176 27.9185 24.7298C24.0084 25.2012 20.2059 26.3293 16.6714 28.0668C16.7527 25.6757 17.4085 23.8534 18.6504 22.6521C20.078 21.2767 22.2601 20.7079 25.1444 20.9865ZM18.929 16.3785C19.1246 16.4876 19.3549 16.5164 19.5714 16.4591C19.7879 16.4017 19.9737 16.2625 20.0897 16.0709C20.6096 15.2272 21.2532 14.4662 21.999 13.8134C24.8485 15.5544 27.6341 16.4308 30.3095 16.4308C31.6934 16.431 33.0671 16.1954 34.3719 15.7343C42.7172 12.7978 46.6926 1.68411 46.8609 1.22563C46.9361 1.0284 46.9414 0.811358 46.8759 0.610699C46.8104 0.410039 46.6781 0.237892 46.5011 0.122968C46.3378 0.0207025 46.1432 -0.0197167 45.9527 0.00902506C45.7621 0.0377668 45.5882 0.133771 45.4623 0.279662C45.1779 0.436356 42.8623 1.52741 33.9192 0.726531C30.5068 0.418946 27.8663 1.15019 26.0556 2.89123C24.2449 4.63228 23.4731 7.15099 23.5775 10.5402C21.5744 11.6644 19.8738 13.2575 18.6214 15.183C18.5628 15.2816 18.5242 15.3909 18.508 15.5044C18.4917 15.618 18.498 15.7336 18.5266 15.8447C18.5552 15.9558 18.6055 16.0602 18.6745 16.1518C18.7436 16.2434 18.83 16.3205 18.929 16.3785ZM27.2917 4.15639C28.7194 2.78097 30.9014 2.21222 33.7858 2.46758C39.4963 2.98409 42.7172 2.75775 44.5221 2.39793C43.0829 5.56083 39.5079 12.113 33.8148 14.1152C30.6171 15.2178 27.1466 14.7361 23.4731 12.6643C27.0828 10.134 32.3581 8.42776 36.7281 7.95187C36.959 7.92725 37.1706 7.81191 37.3164 7.63124C37.4623 7.45057 37.5304 7.21937 37.5058 6.98849C37.4811 6.75762 37.3658 6.54598 37.1851 6.40014C37.0045 6.2543 36.7733 6.1862 36.5424 6.21083C32.633 6.67858 28.8305 7.80283 25.2953 9.53622C25.394 7.15679 26.0498 5.31709 27.2917 4.15639ZM3.69495 32.0131C3.76571 32.0149 3.83628 32.0051 3.90388 31.9841C4.09212 31.9427 4.25913 31.8349 4.37426 31.6803C4.48939 31.5257 4.54492 31.3348 4.53065 31.1426C4.6177 30.8292 5.48821 28.415 12.3769 22.6637C15.0058 20.47 16.358 18.0848 16.3987 15.5718C16.4393 13.0589 15.238 10.7143 12.7773 8.40454C13.3924 6.1847 13.4601 3.8488 12.9746 1.59705C12.9531 1.47965 12.9077 1.36793 12.8412 1.26882C12.7747 1.16972 12.6885 1.08534 12.5881 1.02095C12.4876 0.956551 12.3749 0.913506 12.2571 0.894487C12.1393 0.875468 12.0188 0.880883 11.9031 0.910393C11.7875 0.939902 11.6792 0.992878 11.5848 1.06603C11.4905 1.13918 11.4123 1.23094 11.3549 1.33561C11.2976 1.44028 11.2624 1.55563 11.2515 1.67448C11.2406 1.79334 11.2543 1.91316 11.2916 2.02651C11.52 2.98952 11.6022 3.98142 11.5354 4.96888C6.6431 6.12958 3.21327 8.60767 1.42001 12.3219C-2.39285 20.2959 2.65614 30.9685 2.87087 31.4328C2.94644 31.589 3.06303 31.7217 3.20818 31.8167C3.35333 31.9118 3.52158 31.9656 3.69495 31.9725V32.0131ZM3.00434 13.0705C4.47261 10.0121 7.26987 7.89964 11.3149 6.78537C10.5546 11.1264 8.03012 16.0709 5.27349 19.4834C5.20179 19.5725 5.14836 19.6749 5.11626 19.7847C5.08416 19.8946 5.07402 20.0096 5.08642 20.1233C5.09882 20.2371 5.13351 20.3472 5.18851 20.4475C5.24351 20.5478 5.31774 20.6363 5.40697 20.7079C5.56213 20.8312 5.7543 20.8987 5.95249 20.8994C6.08473 20.9013 6.21565 20.873 6.33531 20.8167C6.45497 20.7604 6.56023 20.6775 6.6431 20.5745C9.07378 17.4787 10.9669 13.9965 12.2434 10.2733C13.88 12.0143 14.7041 13.7554 14.6692 15.4964C14.6344 17.4812 13.5086 19.4254 11.2742 21.2999C6.87523 24.9735 4.75118 27.411 3.72977 28.9373C2.49945 25.6699 0.398602 18.5026 3.00434 13.0705Z" fill="#9DB29D"/>
</svg>
